<svg xmlns="http://www.w3.org/2000/svg" viewBox="0 0 1024 1024" width="28" height="28"><g transform="translate(151.53125, -171.3125) scale(1.25)"><g transform="translate(0, 21)"><g id="Cone">
    <path id="Cone_Bottom" data-name="Cone Bottom" d="M108.22,414.88l189.84,460.03c1.36,3.3,6.09,3.16,7.25-.22l159.34-463.34c.87-2.53-1.03-5.16-3.7-5.13l-349.18,3.32c-2.74.03-4.59,2.82-3.55,5.35Z" style="fill: #fff; stroke: #000; stroke-linejoin: round; stroke-width: 20px;"></path>
    <g id="Waffle_Cross-Hatch" data-name="Waffle Cross-Hatch">
      <path d="M261.93,482.48h0c15.03-15.03,4.46-40.72-16.79-40.83h0c-21.37-.11-32.14,25.72-17.03,40.83h0c9.34,9.34,24.48,9.34,33.82,0Z" style="fill: rgb(0, 0, 0);"></path>
      <path d="M384.85,527.49l-51.82,51.82c-2.24,2.24-2.24,5.86,0,8.1l55.71,55.71c2.24,2.24,5.86,2.24,8.1,0h0c.62-.62,1.08-1.36,1.37-2.19l26.52-77.11c.71-2.07.18-4.36-1.37-5.91l-30.41-30.41c-2.24-2.24-5.86-2.24-8.1,0Z" style="fill: rgb(0, 0, 0);"></path>
      <rect x="274.59" y="463.59" width="84.73" height="95.66" rx="42.36" ry="42.36" transform="translate(-268.79 373.91) rotate(-45)" style="fill: rgb(0, 0, 0);"></rect>
      <rect x="291.06" y="603.84" width="72.24" height="90.24" rx="36.12" ry="36.12" transform="translate(-363.06 421.43) rotate(-45)" style="fill: rgb(0, 0, 0);"></rect>
      <path d="M371.7,684.58l-25.94,25.94c-2.24,2.24-2.24,5.86,0,8.1l12.67,12.67c2.99,2.99,8.09,1.82,9.46-2.19l13.28-38.61c1.97-5.74-5.17-10.2-9.46-5.91Z" style="fill: rgb(0, 0, 0);"></path>
      <path d="M159.42,564.14l2.73,6.83c1.52,3.82,6.46,4.83,9.37,1.93l2.05-2.05c2.24-2.24,2.24-5.86,0-8.1l-4.78-4.78c-4.4-4.4-11.67.39-9.37,6.17Z" style="fill: rgb(0, 0, 0);"></path>
      <path d="M243.92,633.11l-48.65-48.65c-5.24-5.24-13.74-5.24-18.99,0h0c-3.8,3.8-4.97,9.49-2.98,14.47l27.77,69.54c3.58,8.95,15.14,11.33,21.96,4.51l20.89-20.89c5.24-5.24,5.24-13.74,0-18.99Z" style="fill: rgb(0, 0, 0);"></path>
      <path d="M211.32,533.1h0c14.11-14.11,14.11-36.98,0-51.08l-34.94-34.94c-.72-.72-.72-1.89,0-2.62h0c1.16-1.16.34-3.15-1.3-3.16l-11.23-.06c-25.62-.13-43.23,25.72-33.73,49.51l5.37,13.45c1.82,4.55,4.54,8.68,8,12.15l16.74,16.74c14.11,14.11,36.98,14.11,51.08,0Z" style="fill: rgb(0, 0, 0);"></path>
      <path d="M263.74,792.53h0c-5.69,5.69-7.45,14.23-4.46,21.71l22.5,56.36c6.92,17.34,31.68,16.74,37.75-.92l8.66-25.2c2.5-7.28.64-15.35-4.8-20.79l-31.17-31.17c-7.87-7.87-20.62-7.87-28.48,0Z" style="fill: rgb(0, 0, 0);"></path>
      <path d="M392.94,503.07l40.81-40.81c2.24-2.24,5.86-2.24,8.1,0l.06.06c2.24,2.24,2.24,5.86,0,8.1l-40.81,40.81c-2.24,2.24-2.24,5.86,0,8.1l22.48,22.48c2.99,2.99,8.09,1.82,9.46-2.19l30.71-89.32c1.27-3.71-1.47-7.57-5.39-7.59l-120.63-.6c-5.11-.03-7.69,6.16-4.08,9.77l51.18,51.18c2.24,2.24,5.86,2.24,8.1,0Z" style="fill: rgb(0, 0, 0);"></path>
      <rect x="217.18" y="527.25" width="72.24" height="95.66" rx="36.12" ry="36.12" transform="translate(-332.45 347.55) rotate(-45)" style="fill: rgb(0, 0, 0);"></rect>
      <path d="M350.28,739.46h0c-9.24-9.24-24.22-9.24-33.46,0l-13.94,13.94c-9.24,9.24-9.24,24.22,0,33.46l6.81,6.81c12.37,12.37,33.42,7.5,39.1-9.04l7.13-20.75c2.94-8.55.75-18.03-5.64-24.42Z" style="fill: rgb(0, 0, 0);"></path>
      <path d="M234.18,749.12l13.2,33.06c1.52,3.82,6.46,4.83,9.37,1.93l9.93-9.93c2.24-2.24,2.24-5.86,0-8.1l-23.13-23.13c-4.4-4.4-11.67.39-9.37,6.17Z" style="fill: rgb(0, 0, 0);"></path>
      <rect x="236.26" y="661.25" width="67.04" height="90.24" rx="33.52" ry="33.52" transform="translate(-420.46 397.65) rotate(-45)" style="fill: rgb(0, 0, 0);"></rect>
    </g>
    <ellipse id="Cone_Top" data-name="Cone Top" cx="288.37" cy="404.38" rx="182.34" ry="67.01" style="fill: #fff; stroke: #000; stroke-miterlimit: 10; stroke-width: 20px;"></ellipse>
  </g><g id="Right_Eye" data-name="Right Eye">
    <circle id="Left_Eye_Outline" data-name="Left Eye Outline" cx="383.4" cy="216.12" r="64.78" style="fill: #fff; stroke: #000; stroke-miterlimit: 10; stroke-width: 6px;"></circle>
    <path id="Right_Pupil" data-name="Right Pupil" d="M402.83,217.38c-.13,1.98-.7,3.97-1.76,5.81-3.71,6.43-11.93,8.63-18.36,4.92-6.43-3.71-8.63-11.93-4.92-18.36,2.32-4.02,6.4-6.38,10.7-6.69-3.8-1.78-8.03-2.8-12.51-2.8-16.37,0-29.64,13.27-29.64,29.64s13.27,29.64,29.64,29.64,29.64-13.27,29.64-29.64c0-4.48-1.02-8.72-2.81-12.53Z" style="fill: rgb(0, 0, 0);"></path>
  </g><g id="Left_Eye" data-name="Left Eye">
    <circle id="Right_Eye_Outline" data-name="Right Eye Outline" cx="175.1" cy="250.34" r="64.78" style="fill: #fff; stroke: #000; stroke-miterlimit: 10; stroke-width: 6px;"></circle>
    <path id="Left_Pupil" data-name="Left Pupil" d="M213.74,233.23c-.13,1.98-.7,3.97-1.76,5.81-3.71,6.43-11.93,8.63-18.36,4.92-6.43-3.71-8.63-11.93-4.92-18.36,2.32-4.02,6.4-6.38,10.7-6.69-3.8-1.78-8.03-2.8-12.51-2.8-16.37,0-29.64,13.27-29.64,29.64s13.27,29.64,29.64,29.64,29.64-13.27,29.64-29.64c0-4.48-1.02-8.72-2.81-12.53Z" style="fill: rgb(0, 0, 0);"></path>
  </g></g></g></svg>